<svg width="203" height="44" viewBox="0 0 203 44" fill="none" xmlns="http://www.w3.org/2000/svg">
<g filter="url(#filter0_b_9_27979)">
<path d="M168.433 41.2671H7.33773L29.9135 23.8635L32.4819 21.8835L29.9135 19.9036L7.33773 2.5H168.433L197.6 21.8835L168.433 41.2671Z" stroke="#FFEC4A" stroke-width="5"/>
<path d="M56.0352 17.1195V15.557H66.9443V17.1195H62.3704V30.1024H60.6091V17.1195H56.0352ZM71.1613 30.3581C70.47 30.3581 69.8426 30.2279 69.2792 29.9675C68.7157 29.7023 68.2683 29.3212 67.9368 28.824C67.6054 28.3221 67.4397 27.7161 67.4397 27.0058C67.4397 26.3808 67.5628 25.8742 67.809 25.4859C68.0552 25.0929 68.3843 24.7852 68.7962 24.5626C69.2082 24.3401 69.6627 24.1744 70.1599 24.0655C70.6617 23.9518 71.166 23.8619 71.6726 23.7956C72.3355 23.7104 72.8729 23.6465 73.2849 23.6038C73.7015 23.5565 74.0046 23.4784 74.1939 23.3695C74.3881 23.2606 74.4851 23.0712 74.4851 22.8013V22.7445C74.4851 22.0437 74.2934 21.4992 73.9099 21.1109C73.5311 20.7227 72.9558 20.5286 72.184 20.5286C71.3838 20.5286 70.7564 20.7037 70.3019 21.0541C69.8474 21.4045 69.5278 21.7786 69.3431 22.1763L67.7522 21.6081C68.0363 20.9452 68.4151 20.4291 68.8885 20.0598C69.3668 19.6857 69.8876 19.4253 70.451 19.2786C71.0192 19.127 71.5779 19.0513 72.1272 19.0513C72.4776 19.0513 72.88 19.0939 73.3346 19.1791C73.7939 19.2596 74.2366 19.4277 74.6627 19.6834C75.0936 19.9391 75.451 20.325 75.7351 20.8411C76.0192 21.3572 76.1613 22.0484 76.1613 22.9149V30.1024H74.4851V28.6251H74.3999C74.2863 28.8619 74.0969 29.1152 73.8317 29.3851C73.5666 29.655 73.2138 29.8846 72.7735 30.074C72.3332 30.2634 71.7957 30.3581 71.1613 30.3581ZM71.417 28.8524C72.0798 28.8524 72.6385 28.7222 73.0931 28.4618C73.5524 28.2014 73.898 27.8652 74.13 27.4533C74.3668 27.0413 74.4851 26.6081 74.4851 26.1536V24.6195C74.4141 24.7047 74.2579 24.7828 74.0164 24.8538C73.7796 24.9201 73.505 24.9793 73.1925 25.0314C72.8848 25.0787 72.5841 25.1214 72.2905 25.1592C72.0017 25.1924 71.7673 25.2208 71.5874 25.2445C71.1518 25.3013 70.7446 25.3936 70.3658 25.5215C69.9918 25.6446 69.6887 25.8316 69.4567 26.0825C69.2295 26.3287 69.1158 26.6649 69.1158 27.0911C69.1158 27.6734 69.3313 28.1138 69.7621 28.4121C70.1977 28.7056 70.7493 28.8524 71.417 28.8524ZM80.7831 26.1251L80.7547 24.0513H81.0956L85.8683 19.1933H87.9422L82.8569 24.3354H82.7149L80.7831 26.1251ZM79.2206 30.1024V15.557H80.8967V30.1024H79.2206ZM86.1524 30.1024L81.891 24.7047L83.0842 23.5399L88.2831 30.1024H86.1524ZM94.2241 30.3297C93.173 30.3297 92.2663 30.0977 91.504 29.6337C90.7464 29.1649 90.1616 28.5115 89.7497 27.6734C89.3425 26.8306 89.1389 25.8505 89.1389 24.7331C89.1389 23.6157 89.3425 22.6308 89.7497 21.7786C90.1616 20.9215 90.7345 20.2539 91.4684 19.7757C92.2071 19.2928 93.0688 19.0513 94.0537 19.0513C94.6219 19.0513 95.1829 19.146 95.7369 19.3354C96.2909 19.5248 96.7952 19.8325 97.2497 20.2587C97.7042 20.6801 98.0665 21.2388 98.3363 21.9348C98.6062 22.6308 98.7412 23.4878 98.7412 24.5058V25.2161H90.3321V23.7672H97.0366C97.0366 23.1517 96.9135 22.6024 96.6673 22.1195C96.4258 21.6365 96.0802 21.2554 95.6304 20.976C95.1853 20.6966 94.6597 20.557 94.0537 20.557C93.3861 20.557 92.8084 20.7227 92.3207 21.0541C91.8378 21.3808 91.4661 21.807 91.2057 22.3325C90.9452 22.8581 90.815 23.4215 90.815 24.0229V24.9888C90.815 25.8126 90.9571 26.511 91.2412 27.084C91.53 27.6521 91.9301 28.0854 92.4415 28.3837C92.9528 28.6772 93.547 28.824 94.2241 28.824C94.6645 28.824 95.0622 28.7625 95.4173 28.6393C95.7772 28.5115 96.0873 28.3221 96.3477 28.0712C96.6081 27.8155 96.8094 27.4983 96.9514 27.1195L98.5707 27.574C98.4003 28.1233 98.1138 28.6062 97.7113 29.0229C97.3089 29.4348 96.8117 29.7568 96.2199 29.9888C95.628 30.2161 94.9628 30.3297 94.2241 30.3297ZM112.427 25.557H114.359L115.978 27.6876L116.405 28.2558L118.819 31.4661H116.887L115.297 29.3354L114.899 28.7956L112.427 25.557ZM119.416 22.8297C119.416 24.3638 119.139 25.6895 118.585 26.807C118.031 27.9244 117.271 28.7861 116.305 29.3922C115.339 29.9983 114.236 30.3013 112.995 30.3013C111.755 30.3013 110.652 29.9983 109.686 29.3922C108.72 28.7861 107.96 27.9244 107.406 26.807C106.852 25.6895 106.575 24.3638 106.575 22.8297C106.575 21.2956 106.852 19.9698 107.406 18.8524C107.96 17.735 108.72 16.8733 109.686 16.2672C110.652 15.6611 111.755 15.3581 112.995 15.3581C114.236 15.3581 115.339 15.6611 116.305 16.2672C117.271 16.8733 118.031 17.735 118.585 18.8524C119.139 19.9698 119.416 21.2956 119.416 22.8297ZM117.711 22.8297C117.711 21.5702 117.501 20.5072 117.079 19.6408C116.663 18.7743 116.097 18.1185 115.382 17.6734C114.672 17.2284 113.876 17.0058 112.995 17.0058C112.115 17.0058 111.317 17.2284 110.602 17.6734C109.892 18.1185 109.326 18.7743 108.905 19.6408C108.488 20.5072 108.28 21.5702 108.28 22.8297C108.28 24.0892 108.488 25.1521 108.905 26.0186C109.326 26.8851 109.892 27.5409 110.602 27.9859C111.317 28.431 112.115 28.6536 112.995 28.6536C113.876 28.6536 114.672 28.431 115.382 27.9859C116.097 27.5409 116.663 26.8851 117.079 26.0186C117.501 25.1521 117.711 24.0892 117.711 22.8297ZM129.025 25.6422V19.1933H130.701V30.1024H129.025V28.2558H128.912C128.656 28.8098 128.258 29.2809 127.718 29.6692C127.179 30.0527 126.497 30.2445 125.673 30.2445C124.991 30.2445 124.385 30.0953 123.855 29.797C123.325 29.494 122.908 29.0394 122.605 28.4334C122.302 27.8226 122.15 27.0532 122.15 26.1251V19.1933H123.826V26.0115C123.826 26.807 124.049 27.4414 124.494 27.9149C124.944 28.3884 125.517 28.6251 126.213 28.6251C126.629 28.6251 127.053 28.5186 127.484 28.3055C127.92 28.0925 128.284 27.7658 128.578 27.3254C128.876 26.8851 129.025 26.324 129.025 25.6422ZM133.771 30.1024V19.1933H135.448V30.1024H133.771ZM134.624 17.3751C134.297 17.3751 134.015 17.2639 133.778 17.0413C133.546 16.8188 133.43 16.5513 133.43 16.2388C133.43 15.9263 133.546 15.6588 133.778 15.4362C134.015 15.2137 134.297 15.1024 134.624 15.1024C134.95 15.1024 135.23 15.2137 135.462 15.4362C135.698 15.6588 135.817 15.9263 135.817 16.2388C135.817 16.5513 135.698 16.8188 135.462 17.0413C135.23 17.2639 134.95 17.3751 134.624 17.3751ZM138.205 30.1024V28.824L144.398 20.8695V20.7558H138.404V19.1933H146.557V20.5286L140.535 28.4263V28.5399H146.756V30.1024H138.205Z" fill="white"/>
</g>
<defs>
<filter id="filter0_b_9_27979" x="-10" y="-10" width="222.117" height="63.7671" filterUnits="userSpaceOnUse" color-interpolation-filters="sRGB">
<feFlood flood-opacity="0" result="BackgroundImageFix"/>
<feGaussianBlur in="BackgroundImage" stdDeviation="5"/>
<feComposite in2="SourceAlpha" operator="in" result="effect1_backgroundBlur_9_27979"/>
<feBlend mode="normal" in="SourceGraphic" in2="effect1_backgroundBlur_9_27979" result="shape"/>
</filter>
</defs>
</svg>
